<svg width="120" height="39" viewBox="0 0 120 39" fill="none" xmlns="http://www.w3.org/2000/svg">
<path d="M8.23121 15.8001C11.6393 15.8001 13.5871 13.9455 14.7004 12.044L11.8714 10.6933C11.2216 11.953 9.83115 12.9149 8.23121 12.9149C5.42532 12.9149 3.38505 10.7849 3.38505 7.89977C3.38505 5.01457 5.42532 2.88518 8.23121 2.88518C9.83115 2.88518 11.2216 3.86943 11.8714 5.10618L14.7004 3.73203C13.6102 1.83165 11.6393 0 8.23121 0C3.59395 0 0 3.20525 0 7.89977C0 12.5943 3.59395 15.8001 8.23121 15.8001Z" fill="#181827"/>
<path d="M21.5612 6.77814C23.3931 6.77814 24.4364 8.26677 24.4364 9.98394C24.4364 11.7245 23.3931 13.2121 21.5612 13.2121C19.7292 13.2121 18.7091 11.7245 18.7091 9.98394C18.7091 8.26677 19.7292 6.77814 21.5612 6.77814ZM21.5612 15.8001C25.2708 15.8001 27.4969 13.1433 27.4969 9.98394C27.4969 6.84626 25.2708 4.19009 21.5612 4.19009C17.8746 4.19009 15.6487 6.84626 15.6487 9.98394C15.6487 13.1433 17.8746 15.8001 21.5612 15.8001Z" fill="#181827"/>
<path d="M43.0069 4.19073C41.2914 4.19073 39.8077 5.19846 39.1585 6.20618C38.7411 4.94594 37.6974 4.19073 36.0511 4.19073C34.336 4.19073 32.8518 5.24423 32.3877 5.90785V4.46498H29.4436V15.5259H32.3877V8.08367C32.8281 7.46526 33.6862 6.77873 34.7064 6.77873C35.9122 6.77873 36.3757 7.51108 36.3757 8.54172V15.5259H39.3436V8.06079C39.7613 7.46526 40.6189 6.77873 41.6627 6.77873C42.8679 6.77873 43.3321 7.51108 43.3321 8.54172V15.5259H46.2994V7.53396C46.2994 5.26659 45.0705 4.19073 43.0069 4.19073Z" fill="#181827"/>
<path d="M54.0411 6.50339C55.9887 6.50339 56.7304 7.89985 56.8005 8.95337H51.2821C51.4214 7.85409 52.2098 6.50339 54.0411 6.50339ZM58.8405 14.2663L57.5423 12.3882C56.8233 13.0759 55.5023 13.487 54.5514 13.487C52.65 13.487 51.514 12.3196 51.3289 10.9231H59.6524V10.2818C59.6524 6.66309 57.3803 4.19073 54.0411 4.19073C50.6321 4.19073 48.2441 6.77821 48.2441 9.98401C48.2441 13.5328 50.8186 15.8002 54.2264 15.8002C55.9658 15.8002 57.7276 15.2734 58.8405 14.2663Z" fill="#181827"/>
<path d="M64.9143 12.7077V9.15835H69.1581C70.4559 9.15835 71.1509 9.98281 71.1509 10.9447C71.1509 12.0435 70.4086 12.7077 69.1581 12.7077H64.9143ZM64.9143 3.0444H69.0421C70.1542 3.0444 70.8499 3.75438 70.8499 4.71629C70.8499 5.67823 70.1542 6.36474 69.0421 6.36474H64.9143V3.0444ZM74.5136 11.4028C74.5136 9.47899 73.1922 7.89923 71.5457 7.64729C73.0067 7.34959 74.2119 6.06699 74.2119 4.14372C74.2119 2.10539 72.705 0.250824 69.7608 0.250824H61.6228V15.5247H70.0152C72.9595 15.5247 74.5136 13.6925 74.5136 11.4028Z" fill="#181827"/>
<path d="M83.415 12.8692C82.9278 13.5105 82.0006 13.8311 81.0498 13.8311C79.8904 13.8311 78.9403 13.2356 78.9403 12.2056C78.9403 11.1285 79.8904 10.5336 81.0498 10.5336C82.0006 10.5336 82.9278 10.8537 83.415 11.4956V12.8692ZM81.4675 4.19073C79.7055 4.19073 77.9429 4.7398 76.575 5.93078L77.6885 7.8769C78.6393 7.0072 79.7514 6.57203 80.9573 6.57203C82.4413 6.57203 83.415 7.3049 83.415 8.42654V9.9153C82.6734 9.04495 81.3514 8.56402 79.8675 8.56402C78.0819 8.56402 75.9724 9.54825 75.9724 12.1363C75.9724 14.6098 78.0819 15.8001 79.8675 15.8001C81.3285 15.8001 82.6504 15.2734 83.415 14.3808V15.5259H86.3599V8.38078C86.3599 5.19843 84.0177 4.19073 81.4675 4.19073Z" fill="#181827"/>
<path d="M94.4039 6.77814C95.4256 6.77814 96.2361 7.18979 96.7692 7.96848L98.6931 6.18207C97.9515 5.17436 96.5606 4.19009 94.2649 4.19009C90.8098 4.19009 88.3298 6.59491 88.3298 9.98394C88.3298 13.3959 90.8098 15.8001 94.2649 15.8001C96.5606 15.8001 97.9515 14.8153 98.6931 13.7847L96.7692 12.0217C96.2361 12.7546 95.4256 13.2121 94.4039 13.2121C92.619 13.2121 91.3672 11.9072 91.3672 9.98394C91.3672 8.06007 92.619 6.77814 94.4039 6.77814Z" fill="#181827"/>
<path d="M111.19 4.46445H107.573L103.33 9.388V0.251465H100.385V15.5248H103.33V12.6854L104.674 11.2655L107.642 15.5248H111.329L106.761 9.47965L111.19 4.46445Z" fill="#181827"/>
<path d="M116.36 1.45376L116.349 1.44345L112.861 4.89547L113.765 5.79044L116.36 3.22243L115.467 2.33838L116.36 1.45376Z" fill="#181827"/>
<path d="M119.859 4.89555L116.37 1.44409L116.36 1.45383L117.253 2.33845L116.36 3.2225L118.955 5.79047L119.859 4.89555Z" fill="#181827"/>
<path d="M116.361 1.45361L115.467 2.33823L116.361 3.22228L117.254 2.33823L116.361 1.45361Z" fill="#181827"/>
<path d="M8.37062 28.9478L4.61466 19.7196H0V34.9934H3.29304V24.2991L7.65193 34.9934H9.08931L13.4477 24.2991V34.9934H16.7639V19.7196H12.1266L8.37062 28.9478Z" fill="#181827"/>
<path d="M38.7189 32.2323C37.7484 32.2323 36.6356 31.6952 36.1387 30.9697V26.9715C36.6356 26.2231 37.7484 25.6614 38.7189 25.6614C40.4704 25.6614 41.6299 26.9949 41.6299 28.9589C41.6299 30.9234 40.4704 32.2323 38.7189 32.2323ZM39.6656 23.0195C38.3167 23.0195 37.0386 23.6042 36.1387 24.7504V18.9973H33.1326V34.5947H36.1387V33.1449C37.0386 34.2677 38.2924 34.8754 39.6656 34.8754C42.553 34.8754 44.7301 32.7235 44.7301 28.9589C44.7301 25.2641 42.5766 23.0195 39.6656 23.0195Z" fill="#181827"/>
<path d="M46.4126 34.5948H49.4179V23.2997H46.4126V34.5948Z" fill="#181827"/>
<path d="M51.8096 34.5947H54.8153V18.9973H51.8096V34.5947Z" fill="#181827"/>
<path d="M57.2053 34.5948H60.2112V23.2997H57.2053V34.5948Z" fill="#181827"/>
<path d="M58.6972 21.7992C59.5308 21.7992 60.2062 21.1321 60.2062 20.3083C60.2062 19.4843 59.5308 18.8373 58.6972 18.8373C57.8837 18.8373 57.1887 19.4843 57.1887 20.3083C57.1887 21.1321 57.8837 21.7992 58.6972 21.7992Z" fill="#181827"/>
<path d="M47.9949 18.8373C47.1814 18.8373 46.4871 19.4843 46.4871 20.3082C46.4871 21.1321 47.1814 21.7992 47.9949 21.7992C48.8294 21.7992 49.5043 21.1321 49.5043 20.3082C49.5043 19.4843 48.8294 18.8373 47.9949 18.8373Z" fill="#181827"/>
<path d="M67.8596 32.2323C67.1973 32.2323 66.8183 31.6953 66.8183 30.9933V25.8956H68.8334L67.8242 23.2996H66.8183V20.2135H63.7883V23.2996H61.8948V25.8956H63.7883V31.7885C63.7883 33.7994 64.9251 34.8755 67.0308 34.8755C68.2859 34.8755 69.0905 34.5478 69.5403 34.1504L68.9009 31.9053C68.735 32.0697 68.3088 32.2323 67.8596 32.2323Z" fill="#181827"/>
<path d="M75.1612 30.9781L72.1796 23.1213H69.1245V23.2209L71.4504 29.2031L71.4255 29.2123L73.5993 34.5797L73.173 35.5383C72.8891 36.1466 72.3684 36.3576 71.5875 36.3576C71.3035 36.3576 70.9009 36.2866 70.6412 36.1696L70.1907 38.8355C70.5691 38.9295 71.3271 38.9999 71.6812 38.9999C73.6465 38.9529 75.1612 38.3912 76.0137 36.2629L81.3855 23.1213H78.1429L75.1612 30.9781Z" fill="#181827"/>
<path d="M27.2907 27.2879C27.5564 27.7952 27.6976 28.393 27.6976 29.0223C27.6976 30.7732 26.6479 32.2704 24.8055 32.2704C24.0405 32.2704 23.4191 32.0099 22.9504 31.5833L20.928 33.5839C21.9151 34.3861 23.2252 34.8751 24.8055 34.8751C28.5372 34.8751 30.7759 32.2017 30.7759 29.0223C30.7759 27.5674 30.2951 26.2195 29.4167 25.1837L27.2907 27.2879Z" fill="#181827"/>
<path d="M21.9366 29.0223C21.9366 27.2931 22.9626 25.7959 24.8055 25.7959C25.5075 25.7959 26.0942 26.0146 26.5519 26.3799L28.5702 24.3822C27.5952 23.6425 26.3268 23.1924 24.8055 23.1924C21.0971 23.1924 18.8577 25.8646 18.8577 29.0223C18.8577 30.4291 19.2975 31.7352 20.1075 32.756L22.2642 30.622C22.0495 30.1451 21.9366 29.5983 21.9366 29.0223Z" fill="#181827"/>
</svg>
